<svg width="100" height="100" viewBox="0 0 100 100" fill="none" xmlns="http://www.w3.org/2000/svg">
<rect x="0.5" y="0.5" width="99" height="99" rx="9.5" stroke="#5671F6"/>
<path d="M33.6816 52.043C32.6517 53.0547 31.4486 53.5605 30.0723 53.5605C28.3132 53.5605 26.9049 52.959 25.8477 51.7559C24.7904 50.5436 24.2617 48.9121 24.2617 46.8613C24.2617 45.5579 24.5443 44.3639 25.1094 43.2793C25.6836 42.1855 26.4811 41.3379 27.502 40.7363C28.5228 40.1257 29.6712 39.8203 30.9473 39.8203C32.2598 39.8203 33.4264 40.1484 34.4473 40.8047C35.4681 41.4609 36.2611 42.4043 36.8262 43.6348C37.3913 44.8652 37.6784 46.2734 37.6875 47.8594V49.3223C37.6875 52.64 36.8626 55.2467 35.2129 57.1426C33.5632 59.0384 31.2253 60.0501 28.1992 60.1777L27.2285 60.1914V56.8965L28.1035 56.8828C31.5397 56.7279 33.3991 55.1146 33.6816 52.043ZM31.043 50.5391C31.681 50.5391 32.2279 50.375 32.6836 50.0469C33.1484 49.7188 33.4993 49.3223 33.7363 48.8574V47.2305C33.7363 45.8906 33.4811 44.8516 32.9707 44.1133C32.4603 43.375 31.7767 43.0059 30.9199 43.0059C30.127 43.0059 29.4753 43.3704 28.9648 44.0996C28.4544 44.8197 28.1992 45.7266 28.1992 46.8203C28.1992 47.9049 28.4453 48.7982 28.9375 49.5C29.4388 50.1927 30.1406 50.5391 31.043 50.5391ZM54.1621 60H40.5176V57.293L46.957 50.4297C47.8411 49.4635 48.4928 48.6204 48.9121 47.9004C49.3405 47.1803 49.5547 46.4967 49.5547 45.8496C49.5547 44.9655 49.3314 44.2728 48.8848 43.7715C48.4382 43.2611 47.8001 43.0059 46.9707 43.0059C46.0775 43.0059 45.3711 43.3158 44.8516 43.9355C44.3411 44.5462 44.0859 45.3529 44.0859 46.3555H40.1211C40.1211 45.1432 40.4082 44.0358 40.9824 43.0332C41.5658 42.0306 42.3861 41.2467 43.4434 40.6816C44.5007 40.1074 45.6992 39.8203 47.0391 39.8203C49.0898 39.8203 50.6803 40.3125 51.8105 41.2969C52.9499 42.2812 53.5195 43.6712 53.5195 45.4668C53.5195 46.4512 53.2643 47.4538 52.7539 48.4746C52.2435 49.4954 51.3685 50.6849 50.1289 52.043L45.6035 56.8145H54.1621V60ZM56.541 43.9219C56.541 42.7005 56.9375 41.7116 57.7305 40.9551C58.5234 40.1895 59.5625 39.8066 60.8477 39.8066C62.151 39.8066 63.1992 40.1849 63.9922 40.9414C64.7852 41.6888 65.1816 42.7051 65.1816 43.9902V44.9746C65.1816 46.2051 64.7852 47.194 63.9922 47.9414C63.1992 48.6888 62.1602 49.0625 60.875 49.0625C59.5807 49.0625 58.5326 48.6888 57.7305 47.9414C56.9375 47.1849 56.541 46.1686 56.541 44.8926V43.9219ZM59.166 44.9746C59.166 45.5215 59.321 45.9635 59.6309 46.3008C59.9499 46.6289 60.3646 46.793 60.875 46.793C61.3854 46.793 61.791 46.6243 62.0918 46.2871C62.3926 45.9499 62.543 45.4987 62.543 44.9336V43.9219C62.543 43.375 62.3926 42.9329 62.0918 42.5957C61.791 42.2585 61.3763 42.0898 60.8477 42.0898C60.3464 42.0898 59.9408 42.2585 59.6309 42.5957C59.321 42.9238 59.166 43.3841 59.166 43.9766V44.9746ZM66.0566 55.1191C66.0566 53.8887 66.4577 52.8997 67.2598 52.1523C68.0618 51.3958 69.1009 51.0176 70.377 51.0176C71.6712 51.0176 72.7148 51.3913 73.5078 52.1387C74.3099 52.877 74.7109 53.8978 74.7109 55.2012V56.1855C74.7109 57.4069 74.319 58.3958 73.5352 59.1523C72.7513 59.8997 71.7077 60.2734 70.4043 60.2734C69.0918 60.2734 68.0391 59.8952 67.2461 59.1387C66.4531 58.3822 66.0566 57.3796 66.0566 56.1309V55.1191ZM68.6816 56.1855C68.6816 56.6868 68.8457 57.1152 69.1738 57.4707C69.502 57.8262 69.9121 58.0039 70.4043 58.0039C71.5163 58.0039 72.0723 57.3887 72.0723 56.1582V55.1191C72.0723 54.5723 71.9173 54.1348 71.6074 53.8066C71.2975 53.4694 70.8874 53.3008 70.377 53.3008C69.8665 53.3008 69.4564 53.4694 69.1465 53.8066C68.8366 54.1348 68.6816 54.5859 68.6816 55.1602V56.1855ZM61.6543 58.5098L59.7266 57.4707L69.4473 41.9121L71.375 42.9512L61.6543 58.5098Z" fill="#5671F6"/>
</svg>
